{
  "accessors": [
    {
      "bufferView": 2,
      "componentType": 5126,
      "count": 4369,
      "max": [
        0.16691599786281586,
        0.2446189969778061,
        1.1961029767990112
      ],
      "min": [
        -0.233365997672081,
        -0.2446189969778061,
        0.2212049961090088
      ],
      "type": "VEC3"
    },
    {
      "bufferView": 2,
      "byteOffset": 52428,
      "componentType": 5126,
      "count": 4369,
      "max": [
        0.9999744296073914,
        0.9999697208404541,
        0.9999998211860657
      ],
      "min": [
        -0.9999969601631165,
        -1.0,
        -0.9999904036521912
      ],
      "type": "VEC3"
    },
    {
      "bufferView": 1,
      "componentType": 5126,
      "count": 4369,
      "max": [
        1.0,
        0.9514700174331665
      ],
      "min": [
        0.0,
        0.08799800276756287
      ],
      "type": "VEC2"
    },
    {
      "bufferView": 0,
      "componentType": 5125,
      "count": 22560,
      "type": "SCALAR"
    },
    {
      "bufferView": 2,
      "byteOffset": 104856,
      "componentType": 5126,
      "count": 748,
      "max": [
        0.233365997672081,
        0.24435700476169586,
        1.25
      ],
      "min": [
        -0.20114800333976746,
        -0.2446189969778061,
        -1.25
      ],
      "type": "VEC3"
    },
    {
      "bufferView": 2,
      "byteOffset": 113832,
      "componentType": 5126,
      "count": 748,
      "max": [
        1.0,
        1.0,
        1.0
      ],
      "min": [
        -1.0,
        -1.0,
        -1.0
      ],
      "type": "VEC3"
    },
    {
      "bufferView": 1,
      "byteOffset": 34952,
      "componentType": 5126,
      "count": 748,
      "max": [
        1.0658799409866333,
        0.9375659823417664
      ],
      "min": [
        0.0,
        0.0
      ],
      "type": "VEC2"
    },
    {
      "bufferView": 0,
      "byteOffset": 90240,
      "componentType": 5125,
      "count": 3420,
      "type": "SCALAR"
    }
  ],
  "asset": {
    "extras": {
      "author": "dfdsfg (https://sketchfab.com/chrisyopher595aaa)",
      "license": "CC-BY-4.0 (http://creativecommons.org/licenses/by/4.0/)",
      "source": "https://sketchfab.com/3d-models/mannequin-2614de372606482bac7cc7c1e7d78f34",
      "title": "Mannequin"
    },
    "generator": "Sketchfab-13.79.0",
    "version": "2.0"
  },
  "bufferViews": [
    {
      "buffer": 0,
      "byteLength": 103920,
      "name": "floatBufferViews",
      "target": 34963
    },
    {
      "buffer": 0,
      "byteLength": 40936,
      "byteOffset": 103920,
      "byteStride": 8,
      "name": "floatBufferViews",
      "target": 34962
    },
    {
      "buffer": 0,
      "byteLength": 122808,
      "byteOffset": 144856,
      "byteStride": 12,
      "name": "floatBufferViews",
      "target": 34962
    }
  ],
  "buffers": [
    {
      "byteLength": 267664,
      "uri": "scene.bin"
    }
  ],
  "images": [
    {
      "uri": "textures/mat_0-katzerls-cookie-dummy23.jpg_baseColor.jpeg"
    },
    {
      "uri": "textures/mat_1-katzerls-cookie-dummy24.jpg_baseColor.jpeg"
    }
  ],
  "materials": [
    {
      "doubleSided": true,
      "name": "mat_0-katzerls-cookie-dummy23.jpg",
      "pbrMetallicRoughness": {
        "baseColorTexture": {
          "index": 0
        },
        "metallicFactor": 0.0
      }
    },
    {
      "doubleSided": true,
      "name": "mat_1-katzerls-cookie-dummy24.jpg",
      "pbrMetallicRoughness": {
        "baseColorTexture": {
          "index": 1
        },
        "metallicFactor": 0.0
      }
    }
  ],
  "meshes": [
    {
      "name": "Object_0",
      "primitives": [
        {
          "attributes": {
            "NORMAL": 1,
            "POSITION": 0,
            "TEXCOORD_0": 2
          },
          "indices": 3,
          "material": 0,
          "mode": 4
        }
      ]
    },
    {
      "name": "Object_1",
      "primitives": [
        {
          "attributes": {
            "NORMAL": 5,
            "POSITION": 4,
            "TEXCOORD_0": 6
          },
          "indices": 7,
          "material": 1,
          "mode": 4
        }
      ]
    }
  ],
  "nodes": [
    {
      "children": [
        1
      ],
      "matrix": [
        1.0,
        0.0,
        0.0,
        0.0,
        0.0,
        2.220446049250313e-16,
        -1.0,
        0.0,
        0.0,
        1.0,
        2.220446049250313e-16,
        0.0,
        0.0,
        0.0,
        0.0,
        1.0
      ],
      "name": "Sketchfab_model"
    },
    {
      "children": [
        2,
        3
      ],
      "name": "5RYA1B95OSBVV0PB28RBVF395.obj.cleaner.materialmerger.gles"
    },
    {
      "mesh": 0,
      "name": "Object_2"
    },
    {
      "mesh": 1,
      "name": "Object_3"
    }
  ],
  "samplers": [
    {
      "magFilter": 9729,
      "minFilter": 9987,
      "wrapS": 10497,
      "wrapT": 10497
    }
  ],
  "scene": 0,
  "scenes": [
    {
      "name": "Sketchfab_Scene",
      "nodes": [
        0
      ]
    }
  ],
  "textures": [
    {
      "sampler": 0,
      "source": 0
    },
    {
      "sampler": 0,
      "source": 1
    }
  ]
}
